<svg xmlns="http://www.w3.org/2000/svg" version="1.1" xmlns:xlink="http://www.w3.org/1999/xlink" xmlns:svgjs="http://svgjs.dev/svgjs" width="2000" height="333" viewBox="0 0 2000 333"><g transform="matrix(1,0,0,1,-1.2121212121212466,-0.1396506372132933)"><svg viewBox="0 0 396 66" data-background-color="#111111" preserveAspectRatio="xMidYMid meet" height="333" width="2000" xmlns="http://www.w3.org/2000/svg" xmlns:xlink="http://www.w3.org/1999/xlink"><g id="tight-bounds" transform="matrix(1,0,0,1,0.2400000000000091,0.027678504672906)"><svg viewBox="0 0 395.52 65.9446429906542" height="65.9446429906542" width="395.52"><g><svg viewBox="0 0 395.52 65.9446429906542" height="65.9446429906542" width="395.52"><g><svg viewBox="0 0 395.52 65.9446429906542" height="65.9446429906542" width="395.52"><g id="textblocktransform"><svg viewBox="0 0 395.52 65.9446429906542" height="65.9446429906542" width="395.52" id="textblock"><g><svg viewBox="0 0 395.52 65.9446429906542" height="65.9446429906542" width="395.52"><g transform="matrix(1,0,0,1,0,0)"><svg width="395.52" viewBox="-1.9 -41 268.47999999999996 45.6" height="65.9446429906542" data-palette-color="#ffffff"><path d="M14.45 0.6L14.45 0.6Q10.2 0.6 7.2-1.03 4.2-2.65 2.1-5.5L2.1-5.5 5.2-8.1Q7.05-5.65 9.3-4.38 11.55-3.1 14.6-3.1L14.6-3.1Q18.35-3.1 20.33-4.9 22.3-6.7 22.3-9.7L22.3-9.7Q22.3-12.2 20.8-13.55 19.3-14.9 15.85-15.7L15.85-15.7 13-16.35Q8.2-17.45 5.68-19.68 3.15-21.9 3.15-25.95L3.15-25.95Q3.15-28.25 4-30.05 4.85-31.85 6.38-33.05 7.9-34.25 10.03-34.88 12.15-35.5 14.7-35.5L14.7-35.5Q18.65-35.5 21.48-34.05 24.3-32.6 26.25-29.8L26.25-29.8 23.1-27.5Q21.65-29.5 19.6-30.65 17.55-31.8 14.5-31.8L14.5-31.8Q11.15-31.8 9.22-30.38 7.3-28.95 7.3-26.1L7.3-26.1Q7.3-23.6 8.93-22.33 10.55-21.05 13.85-20.3L13.85-20.3 16.7-19.65Q21.85-18.5 24.15-16.15 26.45-13.8 26.45-9.9L26.45-9.9Q26.45-7.5 25.63-5.55 24.8-3.6 23.25-2.25 21.7-0.9 19.48-0.15 17.25 0.6 14.45 0.6ZM44 0L39 0Q36.9 0 35.82-1.18 34.75-2.35 34.75-4.25L34.75-4.25 34.75-22.3 30.5-22.3 30.5-25.8 32.9-25.8Q34.2-25.8 34.67-26.33 35.15-26.85 35.15-28.15L35.15-28.15 35.15-32.95 38.75-32.95 38.75-25.8 44.4-25.8 44.4-22.3 38.75-22.3 38.75-3.5 44-3.5 44 0ZM54.84 0L50.84 0 50.84-25.8 54.84-25.8 54.84-21.05 55.09-21.05Q55.8-22.9 57.59-24.35 59.39-25.8 62.55-25.8L62.55-25.8 64.09-25.8 64.09-21.8 61.74-21.8Q58.49-21.8 56.67-20.58 54.84-19.35 54.84-17.5L54.84-17.5 54.84 0ZM78.64 0.6L78.64 0.6Q75.99 0.6 73.87-0.35 71.74-1.3 70.22-3.08 68.69-4.85 67.87-7.33 67.04-9.8 67.04-12.9L67.04-12.9Q67.04-15.95 67.87-18.45 68.69-20.95 70.22-22.73 71.74-24.5 73.87-25.45 75.99-26.4 78.64-26.4L78.64-26.4Q81.24-26.4 83.29-25.45 85.34-24.5 86.79-22.83 88.24-21.15 89.02-18.85 89.79-16.55 89.79-13.8L89.79-13.8 89.79-11.9 71.24-11.9 71.24-10.7Q71.24-9.05 71.77-7.63 72.29-6.2 73.27-5.15 74.24-4.1 75.67-3.5 77.09-2.9 78.89-2.9L78.89-2.9Q81.34-2.9 83.17-4.05 84.99-5.2 85.99-7.35L85.99-7.35 88.84-5.3Q87.59-2.65 84.94-1.03 82.29 0.6 78.64 0.6ZM78.64-23.05L78.64-23.05Q76.99-23.05 75.64-22.48 74.29-21.9 73.32-20.85 72.34-19.8 71.79-18.38 71.24-16.95 71.24-15.25L71.24-15.25 71.24-14.9 85.49-14.9 85.49-15.45Q85.49-18.9 83.62-20.98 81.74-23.05 78.64-23.05ZM117.39 0L115.14 0Q112.89 0 111.92-1.2 110.94-2.4 110.69-4.2L110.69-4.2 110.44-4.2Q109.59-1.8 107.64-0.6 105.69 0.6 102.99 0.6L102.99 0.6Q98.89 0.6 96.61-1.5 94.34-3.6 94.34-7.2L94.34-7.2Q94.34-10.85 97.02-12.8 99.69-14.75 105.34-14.75L105.34-14.75 110.44-14.75 110.44-17.3Q110.44-20.05 108.94-21.5 107.44-22.95 104.34-22.95L104.34-22.95Q101.99-22.95 100.42-21.9 98.84-20.85 97.79-19.1L97.79-19.1 95.39-21.35Q96.44-23.45 98.74-24.93 101.04-26.4 104.54-26.4L104.54-26.4Q109.24-26.4 111.84-24.1 114.44-21.8 114.44-17.7L114.44-17.7 114.44-3.5 117.39-3.5 117.39 0ZM103.64-2.8L103.64-2.8Q105.14-2.8 106.39-3.15 107.64-3.5 108.54-4.15 109.44-4.8 109.94-5.65 110.44-6.5 110.44-7.5L110.44-7.5 110.44-11.75 105.14-11.75Q101.69-11.75 100.11-10.75 98.54-9.75 98.54-7.85L98.54-7.85 98.54-6.8Q98.54-4.9 99.92-3.85 101.29-2.8 103.64-2.8ZM127.09 0L123.09 0 123.09-25.8 127.09-25.8 127.09-21.6 127.29-21.6Q127.74-22.6 128.31-23.48 128.89-24.35 129.71-25 130.54-25.65 131.64-26.03 132.74-26.4 134.24-26.4L134.24-26.4Q136.79-26.4 138.94-25.18 141.09-23.95 142.14-21.15L142.14-21.15 142.24-21.15Q142.94-23.25 144.86-24.83 146.79-26.4 150.09-26.4L150.09-26.4Q154.04-26.4 156.26-23.83 158.49-21.25 158.49-16.55L158.49-16.55 158.49 0 154.49 0 154.49-15.85Q154.49-19.3 153.14-21.05 151.79-22.8 148.84-22.8L148.84-22.8Q147.64-22.8 146.56-22.5 145.49-22.2 144.64-21.6 143.79-21 143.29-20.08 142.79-19.15 142.79-17.9L142.79-17.9 142.79 0 138.79 0 138.79-15.85Q138.79-19.3 137.44-21.05 136.09-22.8 133.24-22.8L133.24-22.8Q132.04-22.8 130.94-22.5 129.84-22.2 128.99-21.6 128.14-21 127.61-20.08 127.09-19.15 127.09-17.9L127.09-17.9 127.09 0ZM170.69 0L163.79-25.8 167.69-25.8 170.44-14.65 173.19-3.35 173.29-3.35 176.44-14.65 179.69-25.8 183.24-25.8 186.59-14.65 189.79-3.35 189.89-3.35 192.54-14.65 195.34-25.8 199.09-25.8 192.24 0 187.29 0 183.69-12.4 181.44-20.25 181.34-20.25 179.14-12.4 175.54 0 170.69 0ZM206.88-31.85L206.88-31.85Q205.58-31.85 205.01-32.48 204.43-33.1 204.43-34.1L204.43-34.1 204.43-34.75Q204.43-35.75 205.01-36.38 205.58-37 206.88-37L206.88-37Q208.18-37 208.76-36.38 209.33-35.75 209.33-34.75L209.33-34.75 209.33-34.1Q209.33-33.1 208.76-32.48 208.18-31.85 206.88-31.85ZM204.88 0L204.88-25.8 208.88-25.8 208.88 0 204.88 0ZM225.13 0.6L225.13 0.6Q221.53 0.6 219.11-0.78 216.68-2.15 214.93-4.45L214.93-4.45 217.78-6.75Q219.28-4.85 221.13-3.83 222.98-2.8 225.43-2.8L225.43-2.8Q227.98-2.8 229.41-3.9 230.83-5 230.83-7L230.83-7Q230.83-8.5 229.86-9.58 228.88-10.65 226.33-11.05L226.33-11.05 224.28-11.35Q222.48-11.6 220.98-12.13 219.48-12.65 218.36-13.53 217.23-14.4 216.61-15.7 215.98-17 215.98-18.8L215.98-18.8Q215.98-20.7 216.68-22.13 217.38-23.55 218.61-24.5 219.83-25.45 221.53-25.93 223.23-26.4 225.18-26.4L225.18-26.4Q228.33-26.4 230.46-25.3 232.58-24.2 234.18-22.25L234.18-22.25 231.53-19.85Q230.68-21.05 229.03-22.03 227.38-23 224.88-23L224.88-23Q222.38-23 221.11-21.93 219.83-20.85 219.83-19L219.83-19Q219.83-17.1 221.11-16.25 222.38-15.4 224.78-15L224.78-15 226.78-14.7Q231.08-14.05 232.88-12.23 234.68-10.4 234.68-7.45L234.68-7.45Q234.68-3.7 232.13-1.55 229.58 0.6 225.13 0.6ZM251.43 0.6L251.43 0.6Q248.78 0.6 246.65-0.35 244.53-1.3 243-3.08 241.48-4.85 240.65-7.33 239.83-9.8 239.83-12.9L239.83-12.9Q239.83-15.95 240.65-18.45 241.48-20.95 243-22.73 244.53-24.5 246.65-25.45 248.78-26.4 251.43-26.4L251.43-26.4Q254.03-26.4 256.08-25.45 258.13-24.5 259.58-22.83 261.03-21.15 261.8-18.85 262.58-16.55 262.58-13.8L262.58-13.8 262.58-11.9 244.03-11.9 244.03-10.7Q244.03-9.05 244.55-7.63 245.08-6.2 246.05-5.15 247.03-4.1 248.45-3.5 249.88-2.9 251.68-2.9L251.68-2.9Q254.13-2.9 255.95-4.05 257.78-5.2 258.78-7.35L258.78-7.35 261.63-5.3Q260.38-2.65 257.73-1.03 255.08 0.6 251.43 0.6ZM251.43-23.05L251.43-23.05Q249.78-23.05 248.43-22.48 247.08-21.9 246.1-20.85 245.13-19.8 244.58-18.38 244.03-16.95 244.03-15.25L244.03-15.25 244.03-14.9 258.28-14.9 258.28-15.45Q258.28-18.9 256.4-20.98 254.53-23.05 251.43-23.05Z" opacity="1" transform="matrix(1,0,0,1,0,0)" fill="#ffffff" class="wordmark-text-0" data-fill-palette-color="primary" id="text-0"></path></svg></g></svg></g></svg></g></svg></g></svg></g><defs></defs></svg><rect width="395.52" height="65.9446429906542" fill="none" stroke="none" visibility="hidden"></rect></g></svg></g></svg>